<svg xmlns="http://www.w3.org/2000/svg" viewBox="0 0 200 200">
  <circle cx="100" cy="100" r="95" fill="#007730"/>
  <circle cx="100" cy="100" r="90" fill="none" stroke="#FFFFFF" stroke-width="3"/>
  <circle cx="100" cy="100" r="60" fill="none" stroke="#FFFFFF" stroke-width="2"/>
  
  <!-- Chữ (mô phỏng) -->
  <path id="text-path" d="M 30,100 A 70,70 0 0,0 170,100" fill="none" />
  <text fill="#FFFFFF" font-family="sans-serif" font-size="16" font-weight="bold" letter-spacing="1">
    <textPath href="#text-path" startOffset="50%" text-anchor="middle">ĐOÀN TNCS HỒ CHÍ MINH</textPath>
  </text>

  <!-- Cờ đỏ -->
  <path d="M 40,30 Q 100,10 160,40 Q 130,80 150,130 L 70,130 L 40,30" fill="#E3000F"/>
  <path d="M 35,30 L 45,30 L 70,140 L 60,140 Z" fill="#880000"/>
  
  <!-- Ngôi sao vàng -->
  <polygon points="105,45 110,60 125,60 112,70 117,85 105,75 93,85 98,70 85,60 100,60" fill="#FFD700"/>
  
  <!-- Bánh răng (mô phỏng) -->
  <rect x="85" y="130" width="30" height="20" fill="#FFD700"/>
  <rect x="90" y="125" width="20" height="5" fill="#FFD700"/>
  <rect x="80" y="135" width="40" height="5" fill="#000000" opacity="0.2"/>
</svg>
